<svg xmlns="http://www.w3.org/2000/svg" xmlns:xlink="http://www.w3.org/1999/xlink" version="1.1" width="256" height="256" viewBox="0 0 256 256" xml:space="preserve">
<g style="stroke: none; stroke-width: 0; stroke-dasharray: none; stroke-linecap: butt; stroke-linejoin: miter; stroke-miterlimit: 10; fill: none; fill-rule: nonzero; opacity: 1;" transform="translate(1.4065934065934016 1.4065934065934016) scale(2.81 2.81)" >
	<path d="M -0.544 18.757 l 10.436 7.057 c 0.11 0.074 0.251 0.082 0.367 0.02 c 0.117 -0.062 0.19 -0.183 0.19 -0.315 v -2.852 c 4.298 -0.094 9.392 -1.857 13.389 -4.65 c 4.898 -3.422 7.595 -7.97 7.595 -12.806 c 0 -0.168 -0.117 -0.313 -0.282 -0.349 c -0.025 -0.006 -0.05 -0.008 -0.075 -0.008 c -0.138 0 -0.267 0.08 -0.325 0.21 c -2.793 6.181 -9.623 9.348 -20.302 9.417 v -3.078 c 0 -0.132 -0.073 -0.253 -0.19 -0.315 c -0.116 -0.062 -0.258 -0.055 -0.367 0.02 l -10.436 7.057 c -0.098 0.066 -0.157 0.177 -0.157 0.296 S -0.642 18.691 -0.544 18.757 z" style="stroke: none; stroke-width: 1; stroke-dasharray: none; stroke-linecap: butt; stroke-linejoin: miter; stroke-miterlimit: 10; fill: rgb(0,0,247); fill-rule: nonzero; opacity: 1;" transform=" matrix(2.8008 0 0 2.8008 1.9639999999999986 1.9639999999999702) " stroke-linecap="round" />
</g>
</svg>